User Type,Username,Date,Text
,snaskel,2012-01-13T23:45Z,Thank you so much for this one!
,juan3rd,2012-03-06T06:18Z,"A=10, V=8---Very fast download---Thank You
If my computer is on, I am seeding."
,FXQC,2012-06-01T13:57Z,"General
Format                                   : AVI
Format/Info                              : Audio Video Interleave
Format settings                          : rec
File size                                : 700 MiB
Duration                                 : 1h 56mn
Overall bit rate mode                    : Variable
Overall bit rate                         : 837 Kbps

Video
ID                                       : 0
Format                                   : MPEG-4 Visual
Format profile                           : Advanced Simple@L3
Format settings, BVOP                    : 3
Format settings, QPel                    : Yes
Format settings, GMC                     : No warppoints
Format settings, Matrix                  : Default (H.263)
Codec ID                                 : XVID
Codec ID/Hint                            : XviD
Duration                                 : 1h 56mn
Bit rate                                 : 693 Kbps
Width                                    : 640 pixels
Height                                   : 272 pixels
Display aspect ratio                     : 2.35:1
Frame rate                               : 23.976 fps
Color space                              : YUV
Chroma subsampling                       : 4:2:0
Bit depth                                : 8 bits
Scan type                                : Progressive
Compression mode                         : Lossy
Bits/(Pixel*Frame)                       : 0.166
Stream size                              : 580 MiB (83%)
Writing library                          : XviD 0.0.09 (UTC 2003-03-25)

Audio
ID                                       : 1
Format                                   : MPEG Audio
Format version                           : Version 1
Format profile                           : Layer 3
Mode                                     : Joint stereo
Codec ID                                 : 55
Codec ID/Hint                            : MP3
Duration                                 : 1h 56mn
Bit rate mode                            : Variable
Bit rate                                 : 128 Kbps
Channel(s)                               : 2 channels
Sampling rate                            : 48.0 KHz
Compression mode                         : Lossy
Stream size                              : 110 MiB (16%)
Alignment                                : Aligned on interleaves
Interleave, duration                     : 24 ms (0.58 video frame)
Interleave, preload duration             : 170 ms
Title                                    : wild
Writing library                          : LAME3.95 
Encoding settings                        : -m j -V 3 -q 3 -lowpass 17.5 --abr 128-m j -V 3 -q 3 -lowpass 17.5 --abr 128"
